<svg width="75" height="74" viewBox="0 0 75 74" fill="none" xmlns="http://www.w3.org/2000/svg">
<g opacity="0.5" filter="url(#filter0_di_93_52)">
<circle cx="37.7477" cy="36.8358" r="28.6989" fill="#CFCFCF"/>
</g>
<g filter="url(#filter1_f_93_52)">
<mask id="path-2-inside-1_93_52" fill="white">
<path d="M72.5241 36.8358C72.5241 56.0424 56.954 71.6124 37.7474 71.6124C18.5408 71.6124 2.9707 56.0424 2.9707 36.8358C2.9707 17.6291 18.5408 2.05908 37.7474 2.05908C56.954 2.05908 72.5241 17.6291 72.5241 36.8358ZM9.9689 36.8358C9.9689 52.1774 22.4058 64.6142 37.7474 64.6142C53.089 64.6142 65.5259 52.1774 65.5259 36.8358C65.5259 21.4941 53.089 9.05728 37.7474 9.05728C22.4058 9.05728 9.9689 21.4941 9.9689 36.8358Z"/>
</mask>
<path d="M72.5241 36.8358C72.5241 56.0424 56.954 71.6124 37.7474 71.6124C18.5408 71.6124 2.9707 56.0424 2.9707 36.8358C2.9707 17.6291 18.5408 2.05908 37.7474 2.05908C56.954 2.05908 72.5241 17.6291 72.5241 36.8358ZM9.9689 36.8358C9.9689 52.1774 22.4058 64.6142 37.7474 64.6142C53.089 64.6142 65.5259 52.1774 65.5259 36.8358C65.5259 21.4941 53.089 9.05728 37.7474 9.05728C22.4058 9.05728 9.9689 21.4941 9.9689 36.8358Z" fill="#EEEEEE"/>
<path d="M72.5241 36.8358C72.5241 56.0424 56.954 71.6124 37.7474 71.6124C18.5408 71.6124 2.9707 56.0424 2.9707 36.8358C2.9707 17.6291 18.5408 2.05908 37.7474 2.05908C56.954 2.05908 72.5241 17.6291 72.5241 36.8358ZM9.9689 36.8358C9.9689 52.1774 22.4058 64.6142 37.7474 64.6142C53.089 64.6142 65.5259 52.1774 65.5259 36.8358C65.5259 21.4941 53.089 9.05728 37.7474 9.05728C22.4058 9.05728 9.9689 21.4941 9.9689 36.8358Z" stroke="#CDCDCD" stroke-width="2" mask="url(#path-2-inside-1_93_52)"/>
</g>
<path d="M51.3496 36.8358L30.9465 48.6156L30.9465 25.056L51.3496 36.8358Z" fill="#1617DB"/>
<defs>
<filter id="filter0_di_93_52" x="5.04883" y="8.1369" width="65.3975" height="65.3978" filterUnits="userSpaceOnUse" color-interpolation-filters="sRGB">
<feFlood flood-opacity="0" result="BackgroundImageFix"/>
<feColorMatrix in="SourceAlpha" type="matrix" values="0 0 0 0 0 0 0 0 0 0 0 0 0 0 0 0 0 0 127 0" result="hardAlpha"/>
<feOffset dy="4"/>
<feGaussianBlur stdDeviation="2"/>
<feColorMatrix type="matrix" values="0 0 0 0 0 0 0 0 0 0 0 0 0 0 0 0 0 0 0.14 0"/>
<feBlend mode="normal" in2="BackgroundImageFix" result="effect1_dropShadow_93_52"/>
<feBlend mode="normal" in="SourceGraphic" in2="effect1_dropShadow_93_52" result="shape"/>
<feColorMatrix in="SourceAlpha" type="matrix" values="0 0 0 0 0 0 0 0 0 0 0 0 0 0 0 0 0 0 127 0" result="hardAlpha"/>
<feOffset dy="4"/>
<feGaussianBlur stdDeviation="2"/>
<feComposite in2="hardAlpha" operator="arithmetic" k2="-1" k3="1"/>
<feColorMatrix type="matrix" values="0 0 0 0 0 0 0 0 0 0 0 0 0 0 0 0 0 0 0.1 0"/>
<feBlend mode="normal" in2="shape" result="effect2_innerShadow_93_52"/>
</filter>
<filter id="filter1_f_93_52" x="0.970703" y="0.059082" width="73.5537" height="73.5533" filterUnits="userSpaceOnUse" color-interpolation-filters="sRGB">
<feFlood flood-opacity="0" result="BackgroundImageFix"/>
<feBlend mode="normal" in="SourceGraphic" in2="BackgroundImageFix" result="shape"/>
<feGaussianBlur stdDeviation="1" result="effect1_foregroundBlur_93_52"/>
</filter>
</defs>
</svg>
